<?xml version="1.0" encoding="utf-8"?>
<!-- Generator: Adobe Illustrator 28.1.0, SVG Export Plug-In . SVG Version: 6.00 Build 0)  -->
<svg version="1.1" id="Layer_1" xmlns="http://www.w3.org/2000/svg" xmlns:xlink="http://www.w3.org/1999/xlink" x="0px" y="0px"
	 viewBox="0 0 595.28 559.06" style="enable-background:new 0 0 595.28 559.06;" xml:space="preserve">
<style type="text/css">
	.st0{fill:#5CB874;}
</style>
<g>
	<path class="st0" d="M41.75,314.29c3.35-4.34,7.81-5.18,13.13-5.17c55.12,0.16,110.24,0.07,165.36,0.17
		c3.6,0.01,6.22-0.91,8.77-3.54c10.45-10.74,21.09-21.3,31.77-31.81c2.07-2.04,2.92-4.13,2.88-7.03c-0.14-10.32-0.15-20.65,0-30.97
		c0.26-19,15.34-35.78,33.53-37.5c20.03-1.89,37.78,10.51,42.07,29.64c0.86,3.85,1.17,7.9,1.2,11.86
		c0.11,20.82,0.05,41.63,0.05,62.45c0,6.82,0,6.83,6.59,6.83c17.32,0,34.65,0.48,51.95-0.14c15.82-0.57,34.29,11.72,34.96,33.54
		c0.27,8.74-2.7,16.72-8.77,23.16c-2.17,2.3-2.24,3.45-0.09,5.92c12.01,13.75,11.84,32.25-0.4,45.63c-2.04,2.23-1.59,3.58,0.05,5.32
		c7.27,7.75,10.06,16.9,8.8,27.43c-0.79,6.68-3.39,12.6-7.96,17.34c-2.85,2.96-2.73,4.45-0.02,7.51c9.1,10.26,11,22.35,5.74,34.78
		c-5.22,12.31-14.69,19.88-28.66,20.59c-1-0.03-2-0.09-2.99-0.09c-115.21,0-230.43,0-345.64,0.01c-1.5,0-2.99,0.11-4.49,0.17
		c-4.29,0.08-5.88-3.28-7.82-6.17C41.75,454.23,41.75,384.26,41.75,314.29z M298.58,514.07c31.81,0,63.63-0.01,95.44,0.02
		c3.01,0,5.96-0.25,8.92-0.79c8.22-1.49,13.74-8.04,13.76-16.47c0.02-8.75-5.41-15.34-14.03-16.69c-11.09-1.74-22.27-0.54-33.4-0.73
		c-11.81-0.21-11.57-0.05-11.87-11.72c-0.12-4.63,1.48-5.52,5.71-5.44c12.65,0.25,25.32,0.21,37.97,0
		c8.01-0.13,14.94-6.7,15.55-14.17c0.8-9.85-4.24-17.4-13-18.91c-11.23-1.93-22.59-0.6-33.89-0.8
		c-12.52-0.22-12.38-0.05-12.32-12.73c0.02-3.64,1.31-4.45,4.66-4.4c12.16,0.16,24.32,0.1,36.48,0.05
		c11.03-0.04,18.1-6.63,18.13-16.82c0.04-10.42-7.13-17.15-18.4-17.2c-9.49-0.04-18.99-0.01-28.48-0.01
		c-12.56,0-12.43,0-12.39-12.58c0.01-3.51,1.07-4.55,4.55-4.5c12.16,0.19,24.32,0.11,36.48,0.06c10.97-0.04,18.18-6.75,18.24-16.84
		c0.06-10.51-6.96-17.14-18.29-17.16c-21.15-0.03-42.31,0-63.46-0.02c-8.78-0.01-11.44-2.6-11.45-11.2
		c-0.02-24.49-0.02-48.97,0.01-73.46c0-3.85-0.42-7.66-1.45-11.33c-2.71-9.59-12.81-16.1-22.67-14.84
		c-10.51,1.34-18.54,10.06-18.7,20.73c-0.18,11.99-0.14,23.99,0,35.98c0.05,4.29-1.25,7.77-4.26,10.76
		c-13.1,13.05-26.16,26.13-39.23,39.22c-2.85,2.86-6.17,4.25-10.29,4.19c-8.66-0.14-17.33,0.23-25.98-0.15
		c-4.58-0.2-5.48,1.39-5.47,5.65c0.13,58.97,0.15,117.94-0.01,176.9c-0.01,4.57,1.42,5.49,5.68,5.47
		C233.61,513.99,266.09,514.07,298.58,514.07z M58.76,419.75c0,29.48,0.08,58.97-0.09,88.45c-0.02,4.18,1.18,5.36,5.32,5.29
		c13.82-0.24,27.65-0.17,41.47-0.04c3.13,0.03,4.41-0.75,4.41-4.16c-0.09-59.63-0.09-119.26,0-178.9c0-3.33-1.1-4.24-4.31-4.21
		c-13.82,0.14-27.65,0.27-41.47-0.06c-4.63-0.11-5.44,1.46-5.41,5.68C58.84,361.11,58.76,390.43,58.76,419.75z M178.55,419.69
		c0-29.47-0.06-58.93,0.07-88.39c0.02-3.78-0.79-5.23-4.93-5.16c-14.14,0.26-28.3,0.2-42.44,0.03c-3.53-0.04-4.49,1.11-4.49,4.56
		c0.09,59.43,0.1,118.86-0.01,178.29c-0.01,3.96,1.27,5.19,5.17,5.13c13.31-0.19,26.63-0.07,39.95-0.07c6.67,0,6.67-0.01,6.68-6.49
		C178.55,478.29,178.55,448.99,178.55,419.69z"/>
	<path class="st0" d="M300.64,19.41c5.89,3.71,7.63,10.3,10.72,15.86c5.73,10.32,10.98,20.92,16.34,31.45
		c1.12,2.21,2.33,3.53,5.12,3.9c16.28,2.1,32.51,4.55,48.78,6.75c4.22,0.57,7.82,1.82,9.42,6.16c1.66,4.49-0.6,7.66-3.72,10.52
		c-11.53,10.56-23.01,21.18-34.61,31.66c-2.35,2.13-2.98,4.06-2.32,7.32c2.91,14.47,5.46,29.01,7.99,43.55
		c0.72,4.14,1.08,8.5-3.05,11.34c-3.77,2.59-7.51,1.53-11.3-0.38c-14.12-7.12-28.33-14.06-42.41-21.25
		c-2.8-1.43-4.95-1.53-7.82-0.06c-14.06,7.22-28.29,14.13-42.4,21.27c-3.97,2.01-7.83,3.08-11.7,0.19
		c-3.8-2.84-3.47-7.03-2.77-10.99c2.59-14.87,5.26-29.72,8.16-44.53c0.49-2.51,0.11-4.04-1.68-5.67
		c-11.18-10.2-22.3-20.46-33.47-30.68c-2.22-2.03-4.43-4.02-5.52-6.96c-1.83-4.92,1-9.98,6.84-11.03
		c7.83-1.41,15.75-2.28,23.63-3.39c9.03-1.27,18.04-2.71,27.09-3.74c2.87-0.33,4.37-1.45,5.65-3.94
		c6.75-13.18,13.75-26.23,20.48-39.41c1.63-3.2,3.63-5.88,6.55-7.92C296.64,19.41,298.64,19.41,300.64,19.41z M256.88,163.48
		c-0.05-0.32-0.22,0.82,0.25,1.2c1.11,0.91,2.16-0.22,3.12-0.69c10.29-5.09,20.62-10.12,30.81-15.42c4.55-2.36,8.69-2.32,13.22,0.02
		c10.2,5.28,20.51,10.33,30.81,15.41c0.94,0.47,2,1.66,3.11,0.65c0.79-0.72,0.26-1.88,0.09-2.85c-1.95-10.77-3.56-21.61-5.97-32.28
		c-1.27-5.64,0.82-9.22,4.63-12.68c7.75-7.05,15.44-14.17,23.09-21.33c0.87-0.81,2.62-1.47,1.9-3.07c-0.52-1.16-2.01-0.9-3.16-1.05
		c-10.86-1.39-21.71-2.82-32.56-4.18c-5.35-0.67-9.02-3.1-11.46-8.24c-4.56-9.62-9.78-18.91-14.63-28.39c-1.84-3.6-3.24-3.38-5,0.05
		c-4.85,9.48-10.07,18.78-14.62,28.4c-2.44,5.16-6.15,7.53-11.49,8.2c-10.86,1.36-21.71,2.79-32.56,4.17
		c-1.15,0.15-2.6-0.07-3.15,1.08c-0.64,1.35,0.84,2,1.62,2.73c7.66,7.15,15.29,14.33,23.08,21.34c3.96,3.56,6.27,7.14,4.96,13.02
		C260.56,140.42,258.99,151.44,256.88,163.48z"/>
	<path class="st0" d="M553.52,159.35c-10.33,11.55-22.49,21.15-33.82,31.64c-2.73,2.52-3.67,4.81-3.04,8.2
		c2.41,12.88,4.65,25.78,7.22,38.63c0.77,3.86,0.01,6.94-2.84,9.43c-3.15,2.76-6.64,2.49-10.24,0.72
		c-12.99-6.39-26.03-12.65-38.97-19.14c-2.66-1.33-4.76-1.36-7.41-0.01c-11.71,5.97-23.52,11.75-35.31,17.56
		c-1.79,0.88-3.6,1.76-5.49,2.36c-6.14,1.95-11.6-1.71-10.97-8.13c0.86-8.89,2.72-17.68,4.2-26.51c0.93-5.56,1.73-11.16,3.06-16.62
		c0.6-2.45-0.21-3.72-1.78-5.13c-9.51-8.57-19.01-17.15-28.49-25.75c-3.06-2.78-6.61-5.32-6.85-9.98c-0.27-5.07,4.01-8.36,11-9.25
		c13.97-1.79,27.91-3.89,41.89-5.66c2.67-0.34,4.01-1.5,5.19-3.79c6.18-11.97,12.58-23.83,18.79-35.79
		c1.84-3.54,4.23-5.83,8.47-5.81c4.19,0.02,6.78,2.18,8.63,5.69c6.12,11.63,12.44,23.16,18.33,34.9c1.62,3.23,3.73,4.76,7.09,5.2
		c13.15,1.73,26.28,3.66,39.45,5.18c4.88,0.56,9.02,1.9,11.89,6.07C553.52,155.36,553.52,157.35,553.52,159.35z M410.83,162.55
		c8.06,7.32,15.01,13.73,22.08,20c3.37,2.99,6.22,6.13,5.34,11.07c-0.76,4.24-1.72,8.45-2.49,12.69c-1.11,6.1-2.13,12.21-3.34,19.23
		c10.61-5.18,20.34-9.85,29.99-14.68c3.7-1.86,7.22-2.1,10.97-0.24c8.65,4.28,17.34,8.48,26.03,12.66c1.13,0.55,2.4,1.71,3.64,0.61
		c0.94-0.82,0.52-2.21,0.31-3.34c-1.45-7.83-2.83-15.67-4.46-23.46c-1.17-5.64-0.38-10.21,4.39-14.23
		c7.45-6.28,14.42-13.13,22.04-20.15c-2.98-0.52-5.35-1.02-7.76-1.34c-8.22-1.1-16.44-2.2-24.67-3.16c-6.44-0.75-9-5.56-11.57-10.51
		c-4.19-8.07-8.45-16.1-13.11-24.96c-5,9.43-9.79,17.8-13.94,26.49c-2.84,5.95-7.09,8.61-13.53,9.24
		C431.21,159.41,421.74,161.03,410.83,162.55z"/>
	<path class="st0" d="M41.75,153.36c4.22-6.71,11.45-5.87,17.8-6.85c10.98-1.68,22.02-2.94,33.05-4.28
		c3.77-0.46,6.06-2.23,7.82-5.76c5.57-11.16,11.61-22.08,17.36-33.15c2.03-3.9,4.4-6.97,9.36-7.01c5.07-0.04,7.14,3.3,9.15,7.17
		c6.04,11.67,12.28,23.24,18.35,34.89c1.01,1.94,2.15,2.95,4.47,3.25c13.97,1.81,27.92,3.82,41.88,5.77
		c1.31,0.18,2.64,0.31,3.92,0.65c7.95,2.15,10.18,9.47,4.28,15.1c-8.67,8.26-17.67,16.15-26.54,24.2c-0.24,0.22-0.53,0.4-0.81,0.59
		c-5.53,3.83-7.64,8.19-5.64,15.47c2.98,10.83,4.38,22.1,6.27,33.22c0.68,3.97,0.97,8.07-2.81,10.98c-3.77,2.9-7.58,1.69-11.27-0.12
		c-12.55-6.16-25.09-12.32-37.55-18.66c-2.66-1.35-4.76-1.31-7.41,0.02c-12.49,6.27-25.11,12.28-37.62,18.5
		c-3.79,1.88-7.46,3.17-11.19,0.24c-3.55-2.79-3.93-6.38-3.03-10.73c2.56-12.51,4.69-25.1,7.03-37.65c0.63-3.39-0.31-5.67-3.04-8.2
		c-11.33-10.49-23.49-20.09-33.82-31.64C41.75,157.35,41.75,155.36,41.75,153.36z M162.92,225.58c-1.89-10.58-3.22-20.1-5.4-29.41
		c-1.44-6.15,0.69-10.06,5.14-13.87c7.13-6.11,13.92-12.63,21.63-19.7c-10.04-1.47-18.82-3.44-27.68-3.85
		c-8.98-0.42-13.74-4.77-17.19-12.54c-3.45-7.77-7.95-15.07-12.39-23.33c-5.44,10.17-10.52,19.32-15.23,28.64
		c-2.04,4.04-5.24,5.91-9.34,6.61c-3.43,0.58-6.93,0.77-10.37,1.25c-7.23,1.01-14.44,2.1-22.24,3.25
		c8.04,7.41,15.2,14.38,22.77,20.85c4.16,3.56,4.83,7.71,3.95,12.53c-1.45,7.99-3.03,15.97-4.54,23.95
		c-0.25,1.3-0.85,2.85,0.15,3.83c1.39,1.37,2.79-0.1,4.03-0.7c8.4-4.02,16.82-8.02,25.13-12.24c4.3-2.18,8.16-1.75,12.33,0.38
		C143,215.98,152.45,220.47,162.92,225.58z"/>
	<path class="st0" d="M49.58,530.38c1.5-0.06,2.99-0.17,4.49-0.17c115.21-0.01,230.43-0.01,345.64-0.01c1,0,2,0.06,2.99,0.09
		c-0.06,0.3-0.1,0.6-0.11,0.91c-117.61,0-235.23,0-352.84,0C49.7,530.93,49.64,530.65,49.58,530.38z"/>
	<path class="st0" d="M49.58,530.38c0.06,0.27,0.12,0.55,0.17,0.82c-0.33,0-0.67,0-1,0c-7,0-7,0-7-7
		C43.7,527.1,45.28,530.46,49.58,530.38z"/>
	<path class="st0" d="M161.55,488.39c-0.04,9.69,0.88,8.67-8.92,8.68c-9.81,0.01-8.8,0.88-8.8-8.79c0-10.05-1-8.91,9.16-8.93
		C162.56,479.33,161.49,478.46,161.55,488.39z"/>
	<path class="st0" d="M152.32,462.35c-9.76-0.14-8.43,1.31-8.48-8.38c-0.05-9.77-0.85-8.62,8.94-8.63c9.58-0.01,8.73-1.11,8.75,8.83
		C161.55,462.35,161.54,462.35,152.32,462.35z"/>
	<path class="st0" d="M143.83,419.59c0-1.49,0.06-2.98-0.01-4.47c-0.13-2.71,1.05-3.71,3.81-3.87c13.22-0.78,14.67,0.74,13.26,14.12
		c-0.22,2.05-0.88,3.04-2.99,2.96c-1.82-0.07-3.64,0-5.47,0C143.83,428.32,143.83,428.32,143.83,419.59z"/>
</g>
</svg>
