<?xml version="1.0" encoding="utf-8"?>
<!-- Generator: Adobe Illustrator 28.1.0, SVG Export Plug-In . SVG Version: 6.00 Build 0)  -->
<svg version="1.1" id="Layer_1" xmlns="http://www.w3.org/2000/svg" xmlns:xlink="http://www.w3.org/1999/xlink" x="0px" y="0px"
	 viewBox="0 0 544 542" style="enable-background:new 0 0 544 542;" xml:space="preserve">
<style type="text/css">
	.st0{fill:#5CB874;}
</style>
<path class="st0" d="M269.64,16.1c3.33,0,6.66,0,10,0c4.61,1.87,9.07,3.91,13.08,7.01c7.76,6.01,15.83,11.62,23.61,17.6
	c2.62,2.01,4.96,2.59,8.24,1.7c9.95-2.71,19.99-5.07,30.01-7.5c13.79-3.35,24.1,0.98,31.38,13.11c5.22,8.7,10.55,17.35,15.61,26.15
	c1.76,3.05,4.03,4.45,7.47,4.92c11.03,1.51,22.05,3.14,33.02,5c10.79,1.83,18.64,9.68,20.49,20.49c1.85,10.81,3.51,21.66,4.93,32.53
	c0.5,3.84,2.04,6.28,5.42,8.2c8.82,5.02,17.47,10.34,26.15,15.6c11.61,7.04,15.97,17.49,12.79,30.65
	c-2.23,9.21-4.2,18.51-6.97,27.56c-1.65,5.4-0.42,9.19,2.74,13.65c7.94,11.2,17.98,21.03,22.94,34.23c0,3.33,0,6.66,0,10
	c-2.13,6.6-6.21,12.03-10.32,17.47c-4.91,6.51-9.61,13.18-14.59,19.63c-1.8,2.33-2.27,4.46-1.51,7.35
	c2.69,10.13,5.13,20.32,7.6,30.5c3.35,13.78-0.99,24.12-13.1,31.39c-8.56,5.14-17.04,10.41-25.72,15.34
	c-3.39,1.93-4.91,4.37-5.42,8.21c-1.43,10.87-3.09,21.72-4.94,32.53c-1.85,10.81-9.67,18.64-20.49,20.49
	c-10.97,1.87-21.99,3.49-33.02,5.01c-3.44,0.47-5.71,1.87-7.46,4.92c-5.15,8.94-10.52,17.75-15.86,26.58
	c-7.01,11.58-17.49,15.97-30.65,12.79c-9.54-2.31-19.12-4.49-28.54-7.21c-4.65-1.34-7.97-0.39-11.86,2.4
	c-11.43,8.19-21.57,18.35-35.03,23.51c-3.33,0-6.66,0-10,0c-4.62-1.85-9.07-3.93-13.08-7.02c-7.91-6.1-16.1-11.83-24.03-17.89
	c-2.35-1.79-4.46-2.24-7.35-1.48c-10.29,2.72-20.64,5.21-30.99,7.7c-13.15,3.17-23.64-1.24-30.65-12.83
	c-5.25-8.69-10.6-17.33-15.6-26.16c-1.94-3.42-4.44-4.88-8.24-5.39c-10.87-1.45-21.72-3.09-32.54-4.93
	c-10.79-1.84-18.61-9.7-20.45-20.53c-1.84-10.81-3.5-21.66-4.93-32.54c-0.5-3.84-2.06-6.28-5.44-8.21
	c-8.82-5.02-17.47-10.35-26.17-15.59c-11.58-6.98-15.97-17.5-12.75-30.6c2.3-9.37,4.39-18.8,7.1-28.05
	c1.46-4.99,0.43-8.59-2.56-12.76c-8.09-11.3-18.15-21.32-23.23-34.64c0-3.33,0-6.66,0-10c1.84-4.63,3.93-9.07,7.02-13.09
	c6.1-7.9,11.83-16.09,17.9-24.03c1.79-2.35,2.25-4.47,1.49-7.35c-2.68-10.13-5.12-20.33-7.61-30.51
	c-3.37-13.78,0.94-24.08,13.07-31.33c8.71-5.21,17.35-10.56,26.17-15.59c3.28-1.87,4.51-4.39,4.99-7.96
	c1.48-10.87,3.11-21.72,4.95-32.54c1.84-10.83,9.67-18.69,20.45-20.53c10.81-1.84,21.67-3.49,32.54-4.93
	c3.8-0.51,6.3-1.97,8.24-5.39c5.01-8.83,10.36-17.46,15.6-26.16c6.99-11.59,17.48-16.01,30.64-12.83c9.38,2.27,18.8,4.39,28.06,7.09
	c4.97,1.45,8.56,0.42,12.76-2.54C246.37,31.33,256.29,21.14,269.64,16.1z M360.76,484.2c2.66,0.3,3.42-1.76,4.44-3.45
	c6.95-11.56,13.97-23.08,20.79-34.71c1.58-2.69,3.42-4.01,6.58-4.44c12.85-1.74,25.63-4.04,38.5-5.6c5.08-0.62,6.94-2.71,7.56-7.66
	c1.64-13.03,3.92-25.98,5.71-38.99c0.39-2.84,1.69-4.4,4.01-5.77c11.61-6.87,23.06-14.01,34.75-20.73c3.46-1.99,4.03-4.2,3.12-7.74
	c-3.34-12.89-6.35-25.86-9.8-38.71c-0.89-3.32-0.22-5.65,1.72-8.23c8.2-10.92,16.2-21.98,24.42-32.88c1.8-2.39,1.87-4.1,0.03-6.53
	c-8.14-10.76-16-21.72-24.15-32.47c-2.19-2.89-2.91-5.49-1.93-9.13c3.37-12.53,6.25-25.2,9.57-37.74c1.05-3.95,0.53-6.31-3.35-8.52
	c-11.58-6.58-22.87-13.67-34.32-20.47c-2.3-1.36-3.66-2.88-4.05-5.74c-1.79-13.01-4.05-25.96-5.71-38.99
	c-0.62-4.87-2.35-7.11-7.5-7.73c-13.04-1.57-25.98-3.9-38.99-5.65c-3.06-0.41-4.65-1.88-6.1-4.33
	c-6.7-11.32-13.69-22.47-20.22-33.89c-2.13-3.73-4.3-4.69-8.41-3.58c-12.21,3.3-24.56,6.04-36.76,9.39
	c-4.29,1.18-7.44,0.54-10.95-2.17c-10.14-7.84-20.67-15.18-30.81-23.03c-3.29-2.55-5.49-2.26-8.61,0.13
	c-10.17,7.8-20.68,15.17-30.81,23.02c-3.38,2.61-6.41,3.19-10.5,2.08c-12.37-3.35-24.86-6.23-37.25-9.48
	c-3.78-0.99-6.03-0.24-8.09,3.37c-6.27,10.99-13.26,21.57-19.36,32.65c-2.45,4.44-5.72,5.9-10.22,6.52
	c-12.19,1.67-24.33,3.76-36.54,5.18c-4.85,0.56-6.19,2.96-6.78,7.24c-1.78,13.01-3.96,25.97-5.73,38.99
	c-0.41,3.02-1.77,4.69-4.26,6.15c-11.47,6.77-22.76,13.85-34.33,20.46c-3.65,2.09-4.24,4.37-3.26,8.12
	c3.36,12.88,6.36,25.86,9.78,38.72c0.83,3.12,0.24,5.33-1.61,7.78c-8.12,10.77-16.01,21.72-24.2,32.43c-2.2,2.88-2.26,4.89-0.03,7.8
	c7.7,10.04,14.89,20.48,22.76,30.39c3.28,4.13,3.84,7.77,2.43,12.74c-3.3,11.68-5.82,23.59-8.97,35.32
	c-1.11,4.15-0.56,6.59,3.5,8.88c11.45,6.48,22.57,13.52,33.89,20.21c2.47,1.46,3.89,3.09,4.3,6.13c1.75,12.85,4.04,25.63,5.64,38.49
	c0.63,5.11,2.55,7.34,7.8,7.94c12.22,1.4,24.36,3.48,36.55,5.14c4.04,0.55,6.81,2.08,8.98,5.93c6.2,11.03,13.13,21.64,19.39,32.63
	c2.21,3.88,4.48,4.94,8.8,3.76c12.04-3.28,24.24-5.97,36.28-9.24c4.39-1.19,7.7-0.73,11.4,2.19c9.81,7.72,20.16,14.75,29.97,22.48
	c3.77,2.97,6.28,2.62,9.85-0.15c10.27-7.94,20.87-15.47,31.23-23.3c2.6-1.96,4.97-2.6,8.25-1.65c7.51,2.18,15.15,3.88,22.74,5.76
	C348.16,481.1,354.46,482.65,360.76,484.2z"/>
<path class="st0" d="M117.54,270.69c-0.73,71.49,47.49,136.5,118.49,153.6c59.96,14.44,112.4-1.39,154.63-46.41
	c30.8-32.83,43.75-72.87,40.77-117.85c-0.61-9.13-2.62-18.11-5.14-26.92c-0.75-2.6-0.34-4.34,1.59-6.19
	c5.05-4.84,10.03-9.76,14.84-14.84c2.78-2.93,3.92-1.8,4.98,1.32c4.25,12.49,7.33,25.27,8.75,38.37
	c4.03,37.11-2.17,72.49-20.03,105.28c-28.3,51.96-71.5,84.75-130.03,94.78c-66.31,11.36-122.82-9.05-168.21-58.34
	c-27.07-29.39-42.28-64.74-45.56-104.79c-4.95-60.43,15.25-111.4,59.57-152.35c29.63-27.37,65.12-42.8,105.49-46.38
	c54.18-4.8,100.93,12.27,141.23,48.21c5.28,4.71,5.2,4.61,0.02,9.19c-3.36,2.97-6.66,6.09-9.57,9.5c-2.81,3.3-4.87,3.34-8.04,0.29
	c-15.07-14.53-32.6-25.28-52.21-32.49c-38.75-14.25-77.55-13.89-115.37,2.49c-50.75,21.99-81.79,60.78-93.53,114.86
	C118.05,251.97,117.14,262.09,117.54,270.69z"/>
<path class="st0" d="M185.25,223.82c4.31-0.34,7.74,2.07,10.92,5.26c24.7,24.76,49.53,49.39,74.06,74.31
	c3.71,3.76,5.5,3.28,8.93-0.16c44.39-44.63,88.96-89.09,133.42-133.65c3.58-3.58,7.37-6.17,12.7-5.65
	c4.69,0.45,8.26,2.55,10.19,6.91c1.94,4.4,1.82,8.78-1.06,12.78c-1.06,1.47-2.44,2.73-3.73,4.02
	c-48.16,48.17-96.32,96.33-144.49,144.49c-8.63,8.63-14.55,8.59-23.27-0.13c-28.38-28.38-56.75-56.77-85.16-85.12
	c-3.05-3.04-5.43-6.17-5.28-10.81C172.73,228.81,177.55,223.88,185.25,223.82z"/>
</svg>
