<?xml version="1.0" encoding="utf-8"?>
<!-- Generator: Adobe Illustrator 28.1.0, SVG Export Plug-In . SVG Version: 6.00 Build 0)  -->
<svg version="1.1" id="Layer_1" xmlns="http://www.w3.org/2000/svg" xmlns:xlink="http://www.w3.org/1999/xlink" x="0px" y="0px"
	 viewBox="0 0 595.28 560.47" style="enable-background:new 0 0 595.28 560.47;" xml:space="preserve">
<style type="text/css">
	.st0{fill:#5CB874;}
</style>
<g>
	<path class="st0" d="M310.54,24.13c5.27,2.62,11.22,2.13,16.76,3.74c51.09,14.79,81.79,48.36,92.69,100.2
		c2.03,9.63,1.73,9.7,11.72,9.7c24.28,0,48.56,0.45,72.82-0.17c14.7-0.37,22.63,11.85,22.61,22.83
		c-0.22,117.22-0.13,234.44-0.15,351.66c0,14.48-8.44,22.85-22.98,22.85c-137.67,0.01-275.34,0.01-413.01,0
		c-14.47,0-22.86-8.42-22.86-22.97c-0.01-117.22-0.01-234.44,0-351.66c0-14.23,8.31-22.52,22.58-22.54
		c25.61-0.03,51.21-0.05,76.82,0.04c3.39,0.01,5.16-0.29,5.69-4.55c2.33-18.86,8.57-36.43,19.17-52.32
		c20-30,47.74-48.26,83.18-54.94c2.68-0.5,5.65-0.05,8.03-1.87C292.58,24.13,301.56,24.13,310.54,24.13z M506.15,336.14
		c0-57.7-0.04-115.4,0.09-173.1c0.01-4.1-1.03-5.35-5.24-5.31c-22.61,0.2-45.23,0.1-67.84,0.1c-11.03,0-10.98,0-11.04,10.83
		c-0.05,10.3,0.21,20.62-0.48,30.88c-0.44,6.51-5.58,10.57-10.76,10.04c-5.8-0.59-9.57-5.17-9.6-11.86
		c-0.05-11.81-0.13-23.61,0.05-35.42c0.05-3.43-0.9-4.56-4.46-4.55c-66.51,0.13-133.02,0.17-199.53,0.09c-3.92,0-4.7,1.36-4.63,4.91
		c0.2,11.14,0.05,22.28,0.09,33.42c0.01,2.89-0.31,5.71-2.13,8.02c-2.78,3.54-6.34,5.27-10.94,3.94c-4.94-1.43-7.74-5.07-7.8-10.83
		c-0.12-11.64-0.19-23.28,0.05-34.92c0.08-3.83-1.19-4.72-4.84-4.69c-24.61,0.2-49.22,0.26-73.83,0.18
		c-3.84-0.01-5.3,1.06-5.21,5.08c0.25,11.45,0.62,22.92,0.65,34.36c0.26,103.42,0.23,206.85,0.31,310.28
		c0.01,8.22-1.01,7.35,7.03,7.29c48.37-0.36,96.73-0.1,145.11-0.51c85.96-0.73,171.93-0.27,257.9-0.32c7.85,0,7.04,0.82,7.04-6.82
		C506.16,450.2,506.15,393.17,506.15,336.14z M296.84,137.77c32.39,0,64.79,0,97.18,0c1.16,0,2.33-0.05,3.49,0
		c2.21,0.1,3.05-0.9,2.57-3.05c-1.37-6.13-2.26-12.42-4.19-18.37c-6.47-19.88-17.68-36.63-34.2-49.65
		c-24.73-19.51-52.92-26.93-83.63-21.04c-44.8,8.59-76.23,41.62-84.03,86.18c-0.94,5.38-0.5,5.92,5.13,5.92
		C231.72,137.78,264.28,137.77,296.84,137.77z"/>
	<path class="st0" d="M322.95,437.7c-0.39-1.97-2.12-2.87-3.38-4.06c-27.66-26.07-49.35-56.4-65.15-90.96
		c-0.55-1.21-1.24-2.38-1.56-3.65c-1.48-5.88,1.12-11.4,6.1-13.19c5.46-1.97,10.61,0.25,13.47,6.3
		c8.68,18.37,18.93,35.81,31.09,52.09c18.62,24.92,40.79,45.89,68.41,60.59c15.53,8.26,32.24,12.96,49.65,15.31
		c7.15,0.97,11.38,5.9,10.35,11.48c-1.26,6.83-6.63,9.78-14.15,8.87c-22.04-2.67-42.63-9.59-62-20.3
		c-3.63-2.01-7.55-1.25-11.25-0.89c-21.01,2-41.75,0.07-62.25-4.31c-26.84-5.74-50.35-18-68.68-38.69
		c-15.5-17.5-24.74-38.36-29.71-61.14c-3.66-16.76-5.33-33.77-4.78-50.87c0.52-16.21,1.89-32.42,5.69-48.29
		c1.45-6.07,5.12-9.34,11.25-9.24c46.06,0.78,89.64,9.93,127.16,38.71c25.99,19.93,44.05,45.81,56.01,76.08
		c7.9,20,13.14,40.65,14.5,62.2c0.4,6.32-3.19,11.11-9.29,11.85c-5.5,0.66-10.51-3.48-11.03-9.62
		c-1.69-20.11-5.65-39.67-13.29-58.42c-20.41-50.08-57.06-81.22-109.48-94.03c-13.88-3.39-27.97-5.23-42.24-6.03
		c-3.39-0.19-4.74,0.93-5.18,4.15c-2.63,19.3-3.38,38.63-1.65,58.06c1.53,17.16,5.52,33.61,12.83,49.29
		c9.72,20.84,24.88,36.32,45.51,46.21c18.83,9.02,38.9,12.99,59.75,13.09C320.72,438.28,321.94,438.79,322.95,437.7z"/>
</g>
</svg>
